<?xml version="1.0" encoding="utf-8"?>
<!-- Generator: Adobe Illustrator 22.0.1, SVG Export Plug-In . SVG Version: 6.00 Build 0)  -->
<svg version="1.1" id="Layer_1" xmlns="http://www.w3.org/2000/svg" xmlns:xlink="http://www.w3.org/1999/xlink" x="0px" y="0px"
	 viewBox="0 0 316 90" style="enable-background:new 0 0 316 90;" xml:space="preserve">
<style type="text/css">
	.st0{fill:#FFFFFF;}
</style>
<path class="st0" d="M10.6648,72.7788c0.4052,0.5925,0.6105,1.3569,0.6105,2.272c0,0.8687-0.2103,1.6511-0.6249,2.3253
	c-0.4148,0.6747-1.0038,1.2041-1.7503,1.5735c-0.7379,0.3659-1.5914,0.5515-2.5369,0.5515c-1.6248,0-3.2535-0.5297-4.841-1.5744
	l-0.1967-0.1294l0.1173-0.204l0.4829-0.8398l0.1416-0.2462l0.2263,0.1716c0.4954,0.3758,1.1179,0.7108,1.8501,0.9955
	c0.723,0.2809,1.4344,0.4235,2.1145,0.4235c0.5935,0,1.1642-0.1166,1.6963-0.3467c0.5223-0.2257,0.9537-0.5721,1.2824-1.0298
	c0.3242-0.4506,0.4886-1.0054,0.4886-1.6489c0-0.5999-0.1498-1.1083-0.4452-1.5112c-0.3054-0.416-0.6949-0.7561-1.1573-1.0107
	c-0.486-0.2661-1.1072-0.5399-1.8458-0.8136c-0.8442-0.3093-1.5538-0.6141-2.1089-0.906c-0.5761-0.3027-1.0663-0.7106-1.4568-1.2121
	c-0.4042-0.5179-0.6091-1.1702-0.6091-1.9389c0-0.7468,0.194-1.4185,0.5769-1.9967c0.3825-0.5759,0.9184-1.0292,1.5927-1.3475
	c0.6652-0.3142,1.4166-0.4813,2.2335-0.4965l0.0023-0.0001h0.0023c0.687,0,1.4106,0.0945,2.1509,0.281
	c0.7325,0.1846,1.3959,0.4239,1.9719,0.7111l0.224,0.1116l-0.1119,0.2239l-0.3989,0.7979l-0.1092,0.2184l-0.2209-0.1041
	c-0.4894-0.2305-1.041-0.4301-1.6394-0.5933c-0.5919-0.1614-1.1774-0.2432-1.7404-0.2432c-0.9162,0-1.6539,0.2246-2.1931,0.6679
	c-0.5322,0.4363-0.7908,0.981-0.7908,1.6651c0,0.4749,0.1352,0.8651,0.4133,1.1927c0.2911,0.3431,0.6709,0.6331,1.1288,0.8621
	c0.4806,0.2405,1.1089,0.5092,1.8643,0.7974c0.8478,0.3105,1.5641,0.6348,2.1293,0.9641
	C9.772,71.732,10.269,72.1989,10.6648,72.7788z M29.0937,70.6221h0.25v0.25v8.2109v0.25h-0.25h-0.9873h-0.25v-0.25v-1.0093
	c-0.2982,0.3141-0.6649,0.5946-1.0969,0.8384c-0.6931,0.3907-1.4551,0.5889-2.2649,0.5889c-0.8232,0-1.5814-0.1908-2.2537-0.5671
	c-0.6752-0.3787-1.2159-0.9194-1.607-1.6068c-0.3912-0.6856-0.5895-1.4797-0.5895-2.3602c0-0.937,0.2061-1.7605,0.6124-2.4474
	c0.4066-0.6884,0.9775-1.2257,1.697-1.5971c0.7112-0.3664,1.5234-0.5521,2.4138-0.5521c0.7161,0,1.4101,0.2029,2.0632,0.6035
	c0.4189,0.2578,0.7768,0.568,1.0698,0.9265l0.0613-1.0427l0.0139-0.2353h0.2357H29.0937z M23.0826,72.1093
	c-0.4745,0.263-0.8557,0.6411-1.1328,1.1234c-0.2775,0.4846-0.4182,1.054-0.4182,1.6922c0,0.5826,0.1441,1.127,0.4283,1.618
	c0.2839,0.4912,0.6748,0.8887,1.1619,1.1813c0.4825,0.2899,1.015,0.437,1.5826,0.437c0.8685,0,1.5835-0.261,2.1858-0.798
	c0.598-0.5327,0.9142-1.198,0.9661-2.0184v-1.1483c-0.1583-0.698-0.5366-1.2915-1.1246-1.7644
	c-0.6035-0.4859-1.2734-0.722-2.0483-0.722C24.0993,71.71,23.5606,71.8443,23.0826,72.1093z M42.248,62.7891
	c-0.9886,0-1.7411,0.3339-2.2368,0.9922c-0.4859,0.6447-0.7222,1.6177-0.7222,2.9746v3.8867h-1.1782h-0.25v0.25v0.9033v0.25h0.25
	h1.1782v7.0371v0.25h0.25h0.9868h0.25v-0.25v-7.0371h2.501h0.25v-0.25v-0.9033v-0.25h-0.25h-2.501v-3.9072
	c0-0.9808,0.1343-1.6797,0.399-2.0773c0.2467-0.3698,0.6252-0.5497,1.1572-0.5497c0.2496,0,0.4457,0.0533,0.5828,0.1584
	l0.2243,0.1719l0.1433-0.2436l0.4199-0.7139l0.1296-0.2204l-0.2233-0.1247C43.1959,62.9059,42.7381,62.7891,42.248,62.7891z
	 M59.7475,73.6301l0.0728,0.225l-0.2206,0.0852l-6.7571,2.6097c0.2432,0.4359,0.5849,0.8,1.019,1.0851
	c0.5081,0.3348,1.0942,0.5046,1.7418,0.5046c0.8175,0,1.5687-0.2838,2.233-0.8435l0.2083-0.1755l0.1571,0.2225l0.5038,0.7139
	l0.1364,0.1931l-0.1852,0.1469c-0.4235,0.3359-0.9093,0.6068-1.4444,0.8053c-0.5375,0.1982-1.0859,0.2986-1.6299,0.2986
	c-0.8797,0-1.6807-0.2019-2.3809-0.6c-0.7028-0.3994-1.2573-0.9501-1.6479-1.6366c-0.3911-0.6865-0.5894-1.4664-0.5894-2.3181
	c0-0.8255,0.2097-1.5996,0.623-2.3007c0.4113-0.6984,0.9781-1.262,1.6852-1.6751c0.708-0.4127,1.4922-0.6219,2.3309-0.6219
	c1.0078,0,1.8813,0.3024,2.596,0.8987C58.9053,71.8352,59.4262,72.6368,59.7475,73.6301z M53.9669,72.1163
	c-0.4766,0.283-0.8559,0.672-1.1272,1.1561c-0.2715,0.4852-0.4091,1.0342-0.4091,1.6318c0,0.155,0.0083,0.2997,0.0248,0.4329
	l5.5068-2.1608c-0.2341-0.4108-0.539-0.7532-0.9087-1.0204c-0.43-0.3096-0.9391-0.4666-1.5131-0.4666
	C54.9718,71.6895,54.4425,71.833,53.9669,72.1163z M80.3202,63.9229h-0.25v0.25v0.9873v0.25h0.25h4.0972V79.083v0.25h0.25h1.0288
	h0.25v-0.25V65.4102h4.1392h0.25v-0.25v-0.9873v-0.25h-0.25H80.3202z M99.166,71.034c-0.4461,0.2605-0.817,0.5795-1.1091,0.9531
	l-0.0484-1.1257l-0.0103-0.2393h-0.2395h-0.8608h-0.25v0.25v8.2109v0.25h0.25h0.9868h0.25v-0.25v-4.3467
	c0-0.524,0.1392-1.0131,0.4138-1.4537c0.2764-0.4433,0.6575-0.7948,1.1328-1.0447c0.478-0.2525,1.0109-0.3804,1.5843-0.3804h0.2394
	l0.0104-0.2391l0.042-0.9668l0.0116-0.2667l-0.2668,0.0059C100.5905,70.4062,99.8718,70.6226,99.166,71.034z M118.1161,70.6221h0.25
	v0.25v8.2109v0.25h-0.25h-0.9873h-0.25v-0.25v-1.0093c-0.2982,0.3141-0.6649,0.5946-1.0969,0.8384
	c-0.6931,0.3907-1.4551,0.5889-2.2649,0.5889c-0.8232,0-1.5814-0.1908-2.2537-0.5671c-0.6752-0.3787-1.2159-0.9194-1.6071-1.6068
	c-0.3911-0.6856-0.5895-1.4797-0.5895-2.3602c0-0.937,0.2061-1.7605,0.6124-2.4474c0.4067-0.6884,0.9775-1.2257,1.697-1.5971
	c0.7113-0.3664,1.5234-0.5521,2.4138-0.5521c0.7161,0,1.4101,0.2029,2.0632,0.6035c0.4189,0.2578,0.7767,0.568,1.0698,0.9265
	l0.0613-1.0427l0.0139-0.2353h0.2357H118.1161z M112.1049,72.1093c-0.4745,0.263-0.8557,0.6411-1.1327,1.1234
	c-0.2775,0.4846-0.4182,1.054-0.4182,1.6922c0,0.5826,0.1441,1.127,0.4283,1.618c0.2839,0.4912,0.6748,0.8887,1.1619,1.1813
	c0.4825,0.2899,1.015,0.437,1.5826,0.437c0.8685,0,1.5835-0.261,2.1858-0.798c0.598-0.5327,0.9142-1.198,0.9661-2.0184v-1.1483
	c-0.1583-0.698-0.5366-1.2915-1.1246-1.7644c-0.6035-0.4859-1.2734-0.722-2.0483-0.722
	C113.1217,71.71,112.5831,71.8443,112.1049,72.1093z M134.519,70.6221h-0.1625l-0.0659,0.1485l-2.7784,6.2561l-2.8768-6.259
	l-0.067-0.1456h-0.1602h-1.1553h-0.4001l0.1754,0.3596l4.1583,8.5264l0.0685,0.1404h0.1562h0.126h0.1576l0.068-0.1422l4.0737-8.5264
	l0.171-0.3578h-0.3965H134.519z M151.9223,73.6301l0.0728,0.225l-0.2206,0.0852l-6.7572,2.6097
	c0.2432,0.4359,0.585,0.8,1.019,1.0851c0.5081,0.3348,1.0942,0.5046,1.7418,0.5046c0.8174,0,1.5687-0.2838,2.233-0.8435
	l0.2083-0.1755l0.157,0.2225l0.5039,0.7139l0.1364,0.1931l-0.1852,0.1469c-0.4235,0.3359-0.9094,0.6068-1.4444,0.8053
	c-0.5375,0.1982-1.0859,0.2986-1.6299,0.2986c-0.8797,0-1.6808-0.2019-2.3809-0.6c-0.7028-0.3994-1.2573-0.9501-1.6479-1.6366
	c-0.3911-0.6865-0.5894-1.4664-0.5894-2.3181c0-0.8255,0.2096-1.5996,0.6229-2.3007c0.4113-0.6984,0.9782-1.262,1.6852-1.6751
	c0.7081-0.4127,1.4923-0.6219,2.331-0.6219c1.0078,0,1.8813,0.3024,2.596,0.8987
	C151.0801,71.8352,151.6009,72.6368,151.9223,73.6301z M146.1417,72.1163c-0.4766,0.283-0.8559,0.672-1.1272,1.1561
	c-0.2715,0.4852-0.4091,1.0342-0.4091,1.6318c0,0.155,0.0083,0.2997,0.0248,0.4329l5.5068-2.1608
	c-0.2341-0.4108-0.5391-0.7532-0.9087-1.0204c-0.43-0.3096-0.9391-0.4666-1.5131-0.4666
	C147.1466,71.6895,146.6173,71.833,146.1417,72.1163z M160.7162,62.873h-0.25v0.25v15.96v0.25h0.25h0.9863h0.25v-0.25v-15.96v-0.25
	h-0.25H160.7162z M196.1648,78.9892l0.1392,0.3438h-0.3709h-1.1553h-0.1699l-0.0625-0.158l-1.8906-4.7766h-6.2331l-1.9117,4.7774
	l-0.0629,0.1572h-0.1693h-1.0293h-0.371l0.1392-0.3439l6.3008-15.5605l0.0632-0.1562h0.1685h0.084h0.1685l0.0632,0.1562
	L196.1648,78.9892z M192.08,72.9316l-2.5128-6.4013l-2.5673,6.4013H192.08z M209.6557,70.3906c-0.8096,0-1.5619,0.1987-2.236,0.5905
	c-0.4089,0.2383-0.7491,0.5296-1.0176,0.8707l-0.0455-0.9912l-0.011-0.2385h-0.2388h-0.8604h-0.25v0.25v8.2109v0.25h0.25h0.9863
	h0.25v-0.25v-4.4102c0-0.5671,0.1331-1.0788,0.3956-1.5208c0.2637-0.4431,0.6144-0.7908,1.0421-1.0332
	c0.4282-0.2435,0.9061-0.3669,1.4207-0.3669c0.5314,0.013,0.9271,0.1623,1.2036,0.4564c0.2826,0.3015,0.4324,0.6862,0.4579,1.1757
	l-0.0004,5.699v0.25h0.25h1.0078h0.25v-0.25v-5.9854c-0.031-0.8013-0.3112-1.4557-0.833-1.9551
	C211.1534,70.6435,210.4734,70.3906,209.6557,70.3906z M228.3861,70.6221h-0.1629l-0.0658,0.149l-2.8621,6.4837l-2.9611-6.4866
	l-0.0667-0.1462h-0.1607h-1.1133h-0.3929l0.1665,0.3559l3.7538,8.0245l-1.7192,3.9286l-0.1533,0.3502h0.3823h1.0293h0.1639
	l0.0654-0.1503l5.292-12.1592l0.1522-0.3497h-0.3815H228.3861z M249.6801,70.6221h-0.1651l-0.0648,0.1519l-2.652,6.2141
	l-2.7706-6.2177l-0.066-0.1483h-0.1623h-0.9023h-0.3909l0.1639,0.3549l0.8564,1.8538l-1.6874,4.084l-2.7243-6.144l-0.0659-0.1486
	h-0.1626h-0.9873h-0.3843l0.1558,0.3513l3.8643,8.7148l0.2365,0.5334l0.223-0.5391l2.1945-5.3047l2.4073,5.3123l0.2302,0.508
	l0.226-0.5098l3.8643-8.7148l0.1558-0.3513h-0.3843H249.6801z M264.3285,70.3906c-0.7961,0-1.5312,0.1953-2.1846,0.5805
	c-0.3938,0.2328-0.731,0.5067-1.0088,0.8188V63.123v-0.25h-0.25h-0.9658h-0.25v0.25v15.96v0.25h0.25h0.9863h0.25v-0.25v-4.4102
	c0-0.5393,0.1331-1.0368,0.3956-1.4788c0.264-0.4437,0.6196-0.7993,1.0565-1.0568c0.4352-0.2556,0.9084-0.3853,1.4063-0.3853
	c0.5314,0.013,0.9271,0.1623,1.2036,0.4564c0.2826,0.3015,0.4324,0.6862,0.4579,1.1757l-0.0004,5.699v0.25h0.25h1.0078h0.25v-0.25
	v-5.9854c-0.031-0.8012-0.3112-1.4557-0.833-1.9551C265.8262,70.6435,265.1462,70.3906,264.3285,70.3906z M285.4932,73.6302
	l0.0726,0.2249l-0.2205,0.0852l-6.7567,2.6097c0.2433,0.4362,0.5851,0.8004,1.019,1.0851c0.5081,0.3348,1.094,0.5046,1.7413,0.5046
	c0.8178,0,1.5692-0.2838,2.2335-0.8435l0.2083-0.1755l0.157,0.2225l0.5039,0.7139l0.1364,0.1931l-0.1852,0.1469
	c-0.4232,0.3357-0.9092,0.6066-1.4448,0.8052c-0.537,0.1982-1.0853,0.2987-1.6295,0.2987c-0.8795,0-1.6807-0.2019-2.3813-0.6
	c-0.7031-0.3996-1.2574-0.9503-1.6474-1.6366c-0.3911-0.6865-0.5894-1.4664-0.5894-2.3181c0-0.8252,0.2094-1.5992,0.6225-2.3007
	c0.4112-0.6984,0.9781-1.262,1.6852-1.6751c0.7081-0.4127,1.4923-0.6219,2.331-0.6219c1.0081,0,1.8818,0.3024,2.5965,0.8987
	C284.6516,71.8354,285.1723,72.6371,285.4932,73.6302z M279.7129,72.1163c-0.4763,0.2826-0.8556,0.6716-1.1271,1.1561
	c-0.2718,0.4858-0.4096,1.0348-0.4096,1.6318c0,0.1545,0.0084,0.2991,0.025,0.4329l5.5068-2.1608
	c-0.2338-0.4106-0.5386-0.7531-0.9083-1.0203c-0.4365-0.314-0.9315-0.4666-1.5132-0.4666
	C280.7175,71.6895,280.1882,71.833,279.7129,72.1163z M296.4702,71.034c-0.446,0.2603-0.8169,0.5792-1.1091,0.953l-0.0484-1.1257
	l-0.0103-0.2393h-0.2395h-0.8613h-0.25v0.25v8.2109v0.25h0.25h0.9873h0.25v-0.25v-4.3467c0-0.5239,0.1391-1.013,0.4135-1.4539
	c0.2761-0.4428,0.6572-0.7944,1.1327-1.0447c0.4779-0.2524,1.011-0.3804,1.5847-0.3804h0.2394l0.0104-0.2391l0.042-0.9668
	l0.0116-0.2667l-0.2668,0.0059C297.8947,70.4062,297.176,70.6226,296.4702,71.034z M314.9538,73.9402l-6.7574,2.6096
	c0.2439,0.4362,0.5856,0.8004,1.0186,1.085c0.5092,0.3349,1.0954,0.5048,1.7425,0.5048c0.8171,0,1.5682-0.2838,2.2325-0.8435
	l0.2081-0.1754l0.1571,0.2222l0.5049,0.7139l0.1367,0.1932l-0.1854,0.147c-0.4232,0.3357-0.9092,0.6066-1.4448,0.8052
	c-0.537,0.1982-1.0853,0.2987-1.6295,0.2987c-0.8795,0-1.6807-0.2019-2.3813-0.6c-0.7031-0.3996-1.2574-0.9503-1.6474-1.6366
	c-0.3911-0.6865-0.5894-1.4664-0.5894-2.3181c0-0.827,0.2095-1.6011,0.6225-2.3007c0.4112-0.6984,0.9781-1.262,1.6852-1.6751
	c0.7081-0.4127,1.4923-0.6219,2.331-0.6219c1.0071,0,1.8807,0.3024,2.5965,0.8987c0.7047,0.5869,1.2254,1.3885,1.5476,2.3826
	l0.0729,0.225L314.9538,73.9402z M309.3213,72.1163c-0.476,0.2823-0.8556,0.6715-1.1281,1.1561
	c-0.2712,0.4846-0.4086,1.0336-0.4086,1.6318c0,0.1556,0.0082,0.3004,0.0247,0.433l5.5072-2.1609
	c-0.2339-0.4108-0.5391-0.7533-0.9095-1.0204c-0.4355-0.3139-0.9301-0.4665-1.512-0.4665
	C310.3259,71.6895,309.7966,71.833,309.3213,72.1163z M23.0235,42.4323C20.62,44.1441,17.618,45,14.0206,45H2V9h10.5978
	c3.8263,0,6.8361,0.775,9.0274,2.3235c2.1913,1.549,3.2875,3.7906,3.2875,6.7254c0,1.7937-0.3765,3.3676-1.1284,4.7201
	c-0.7529,1.3536-1.8158,2.4381-3.1897,3.2525c1.897,0.8808,3.3775,2.0301,4.4404,3.4485s1.5949,3.0571,1.5949,4.9161
	C26.6298,38.0382,25.428,40.72,23.0235,42.4323z M9.1138,23.7229h4.3181c1.3074,0,2.3214-0.3992,3.0421-1.1986
	c0.7187-0.7984,1.0795-1.7854,1.0795-2.9591c0-1.2059-0.4097-2.1276-1.2272-2.7636c-0.8175-0.6361-1.9459-0.9539-3.3853-0.9539
	H9.1138V23.7229z M19.2706,34.386c0-2.5438-2.029-3.8155-6.0841-3.8155H9.1138v7.8259h4.5636c1.6682,0,3.0166-0.3339,4.0473-1.0026
	C18.7553,36.7261,19.2706,35.7235,19.2706,34.386z M59.2256,23.5278H43.1045V9.0015H36V45h7.1045V30.3757h16.1211V45h7.1055V9.0015
	h-7.1055V23.5278z M96.0929,31.9407L104.3586,45h-8.1684l-7.493-11.445h-4.6887V45H77V9.0015h10.7791
	c4.4141,0,7.8379,1.0845,10.2714,3.2524c2.4335,2.1689,3.6502,5.1284,3.6502,8.8774c0,2.2181-0.4595,4.2969-1.3776,6.2362
	C99.404,29.3078,97.9946,30.8324,96.0929,31.9407z M94.4494,21.3759c0-1.3038-0.3709-2.551-1.1117-3.7417
	c-0.7418-1.1897-2.1753-1.7853-4.3014-1.7853h-5.0278v10.8582h4.9787c1.9017,0,3.287-0.5625,4.1579-1.6874
	C94.015,23.8948,94.4494,22.6807,94.4494,21.3759z M143.9101,36.2944c-1.6826,2.8101-3.9365,5.0396-6.7617,6.6885
	c-2.8262,1.6499-5.8887,2.4746-9.1875,2.4746c-3.332,0-6.4033-0.8247-9.2119-2.4746c-2.8105-1.6489-5.04-3.8784-6.6885-6.6885
	c-1.6504-2.8091-2.4746-5.8799-2.4746-9.2119c0-3.2661,0.8242-6.3213,2.4746-9.1631c1.6484-2.8418,3.8867-5.1035,6.7129-6.7866
	c2.8252-1.6821,5.8877-2.5234,9.1875-2.5234c3.2988,0,6.3613,0.8413,9.1875,2.5234c2.8252,1.6831,5.0791,3.9448,6.7617,6.7866
	s2.5234,5.897,2.5234,9.1631C146.4335,30.4146,145.5927,33.4854,143.9101,36.2944z M139.0839,27.0825
	c0-2.1563-0.4902-4.1162-1.4707-5.8799c-0.9795-1.7642-2.3105-3.1606-3.9932-4.1899c-1.6826-1.0288-3.5527-1.5435-5.6104-1.5435
	s-3.9287,0.5146-5.6104,1.5435c-1.6826,1.0293-3.0137,2.4258-3.9941,4.1899c-0.9795,1.7637-1.4697,3.7236-1.4697,5.8799
	c0,2.0908,0.498,4.0181,1.4951,5.7817c0.9961,1.7642,2.3516,3.1606,4.0664,4.1895c1.7148,1.0293,3.6182,1.5439,5.709,1.5439
	c2.0244,0,3.8711-0.5146,5.5371-1.5439c1.666-1.0288,2.9717-2.417,3.9199-4.1646
	C138.6093,31.1416,139.0839,29.2061,139.0839,27.0825z M185.9225,45H193V7.5313h-0.0973l-18.6467,25.8762L156.0486,7.5313H156V45
	h6.8328V28.907l11.2763,15.6036h0.0973l11.7161-16.6799V45z M216.601,7.5806L232.8686,45h-8.2314l-2.793-7.0438h-11.9561
	L206.9477,45h-7.0068l16.2686-37.4194H216.601z M219.4916,31.9886l-3.4785-8.7557l-3.626,8.7557H219.4916z M269.7904,17.9194
	c1.6826,2.8418,2.5234,5.897,2.5234,9.1631c0,3.332-0.8408,6.4028-2.5234,9.2119c-1.6826,2.8101-3.9365,5.0396-6.7617,6.6885
	c-2.8262,1.6499-5.8887,2.4746-9.1875,2.4746c-3.332,0-6.4033-0.8247-9.2119-2.4746c-2.8105-1.6489-5.04-3.8784-6.6885-6.6885
	c-1.6504-2.8091-2.4746-5.8799-2.4746-9.2119c0-3.2661,0.8242-6.3213,2.4746-9.1631c1.6484-2.8418,3.8867-5.1035,6.7129-6.7866
	c2.8252-1.6821,5.8877-2.5234,9.1875-2.5234c3.2988,0,6.3613,0.8413,9.1875,2.5234
	C265.8539,12.8159,268.1078,15.0776,269.7904,17.9194z M264.9643,27.0825c0-2.1563-0.4902-4.1162-1.4707-5.8799
	c-0.9795-1.7642-2.3105-3.1606-3.9932-4.1899c-1.6826-1.0288-3.5527-1.5435-5.6104-1.5435s-3.9287,0.5146-5.6104,1.5435
	c-1.6826,1.0293-3.0137,2.4258-3.9941,4.1899c-0.9795,1.7637-1.4697,3.7236-1.4697,5.8799c0,2.0908,0.498,4.0181,1.4951,5.7817
	c0.9961,1.7642,2.3516,3.1606,4.0664,4.1895c1.7148,1.0293,3.6182,1.5439,5.709,1.5439c2.0244,0,3.8711-0.5146,5.5371-1.5439
	c1.666-1.0288,2.9717-2.417,3.9199-4.1646C264.4897,31.1416,264.9643,29.2061,264.9643,27.0825z M313.7166,46.2806h0.1979V9.0885
	h-7.2476l0.1484,21.5092L281.2978,7.6806H281v37.1432h7.2981l-0.1494-21.1207L313.7166,46.2806z"/>
</svg>
