<?xml version="1.0" encoding="utf-8"?>
<!-- Generator: Adobe Illustrator 22.0.1, SVG Export Plug-In . SVG Version: 6.00 Build 0)  -->
<svg version="1.1" id="Layer_1" xmlns="http://www.w3.org/2000/svg" xmlns:xlink="http://www.w3.org/1999/xlink" x="0px" y="0px"
	 viewBox="0 0 130 40" style="enable-background:new 0 0 130 40;" xml:space="preserve">
<style type="text/css">
	.st0{fill:#FFFFFF;}
</style>
<path class="st0" d="M7.4,28.5c-0.4-0.1-0.7-0.2-1.1-0.2c-0.6,0-1,0.1-1.4,0.4c-0.4,0.3-0.5,0.7-0.5,1.1c0,0.3,0.1,0.6,0.3,0.8
	s0.4,0.4,0.7,0.5c0.3,0.1,0.7,0.3,1.1,0.5c0.5,0.2,0.9,0.4,1.2,0.6c0.3,0.2,0.6,0.5,0.8,0.8c0.2,0.3,0.3,0.8,0.3,1.3
	c0,0.5-0.1,0.9-0.4,1.3c-0.2,0.4-0.6,0.7-1,0.9c-0.4,0.2-0.9,0.3-1.4,0.3c-0.9,0-1.9-0.3-2.8-0.9l0.3-0.5c0.3,0.2,0.7,0.4,1.1,0.6
	c0.5,0.2,0.9,0.3,1.3,0.3c0.4,0,0.7-0.1,1.1-0.2s0.6-0.4,0.8-0.7s0.3-0.7,0.3-1.1c0-0.4-0.1-0.7-0.3-1s-0.4-0.5-0.7-0.6
	c-0.3-0.2-0.7-0.3-1.1-0.5c-0.5-0.2-0.9-0.4-1.2-0.5S4.3,31.3,4.1,31s-0.3-0.6-0.3-1.1c0-0.4,0.1-0.8,0.3-1.1
	c0.2-0.3,0.5-0.6,0.9-0.8c0.4-0.2,0.8-0.3,1.3-0.3c0.4,0,0.8,0.1,1.2,0.2s0.8,0.2,1.1,0.4l-0.2,0.5C8.1,28.7,7.7,28.6,7.4,28.5z
	 M16.1,31.8v4.9h-0.6v-1c-0.2,0.3-0.5,0.6-0.9,0.8c-0.4,0.2-0.8,0.3-1.3,0.3c-0.5,0-0.9-0.1-1.3-0.3s-0.7-0.5-0.9-0.9
	c-0.2-0.4-0.3-0.8-0.3-1.3c0-0.5,0.1-1,0.3-1.4c0.2-0.4,0.5-0.7,0.9-0.9c0.4-0.2,0.9-0.3,1.4-0.3c0.4,0,0.8,0.1,1.2,0.3
	c0.4,0.2,0.6,0.5,0.8,0.9l0.1-1.1H16.1z M14.9,35.8c0.4-0.3,0.6-0.8,0.6-1.3v-0.7c-0.1-0.5-0.3-0.8-0.7-1.2
	c-0.4-0.3-0.8-0.5-1.3-0.5c-0.4,0-0.7,0.1-1,0.3c-0.3,0.2-0.6,0.4-0.7,0.7s-0.3,0.7-0.3,1.1c0,0.4,0.1,0.7,0.3,1
	c0.2,0.3,0.4,0.6,0.7,0.8s0.7,0.3,1,0.3C14.1,36.3,14.5,36.2,14.9,35.8z M19.3,32.4h-0.9v-0.5h0.9v-2.5c0-0.8,0.1-1.3,0.4-1.7
	s0.7-0.5,1.2-0.5c0.3,0,0.5,0.1,0.7,0.2l-0.3,0.4c-0.1-0.1-0.3-0.1-0.4-0.1c-0.4,0-0.6,0.1-0.8,0.4c-0.2,0.3-0.3,0.7-0.3,1.3v2.5
	h1.6v0.5h-1.6v4.3h-0.6V32.4z M27.4,35.8l0.3,0.4c-0.2,0.2-0.5,0.3-0.8,0.5c-0.3,0.1-0.6,0.2-0.9,0.2c-0.5,0-0.9-0.1-1.3-0.3
	c-0.4-0.2-0.7-0.5-0.9-0.9s-0.3-0.8-0.3-1.3c0-0.5,0.1-0.9,0.3-1.3c0.2-0.4,0.6-0.7,1-0.9s0.8-0.3,1.3-0.3c0.6,0,1,0.2,1.5,0.5
	c0.4,0.3,0.7,0.8,0.9,1.3l-4.2,1.6c0.2,0.4,0.4,0.6,0.7,0.9c0.3,0.2,0.7,0.3,1.1,0.3C26.5,36.3,27,36.1,27.4,35.8z M25,32.4
	c-0.3,0.2-0.6,0.4-0.7,0.7c-0.2,0.3-0.3,0.7-0.3,1c0,0.2,0,0.3,0.1,0.5l3.6-1.4c-0.2-0.3-0.4-0.6-0.7-0.8c-0.3-0.2-0.6-0.3-1-0.3
	C25.6,32.2,25.3,32.3,25,32.4z M39.2,27.8v0.6h-2.6v8.3H36v-8.3h-2.6v-0.6H39.2z M41.8,32.1c0.4-0.2,0.8-0.4,1.2-0.4l0,0.6
	c-0.4,0-0.7,0.1-1,0.2c-0.3,0.2-0.6,0.4-0.7,0.7S41,33.8,41,34.1v2.6h-0.6v-4.9h0.5l0,1.2C41.1,32.6,41.4,32.3,41.8,32.1z
	 M49.7,31.8v4.9h-0.6v-1c-0.2,0.3-0.5,0.6-0.9,0.8c-0.4,0.2-0.8,0.3-1.3,0.3c-0.5,0-0.9-0.1-1.3-0.3S45,36,44.8,35.6
	c-0.2-0.4-0.3-0.8-0.3-1.3c0-0.5,0.1-1,0.3-1.4c0.2-0.4,0.5-0.7,0.9-0.9c0.4-0.2,0.9-0.3,1.4-0.3c0.4,0,0.8,0.1,1.2,0.3
	c0.4,0.2,0.6,0.5,0.8,0.9l0.1-1.1H49.7z M48.5,35.8c0.4-0.3,0.6-0.8,0.6-1.3v-0.7c-0.1-0.5-0.3-0.8-0.7-1.2
	c-0.4-0.3-0.8-0.5-1.3-0.5c-0.4,0-0.7,0.1-1,0.3c-0.3,0.2-0.6,0.4-0.7,0.7S45,33.8,45,34.3c0,0.4,0.1,0.7,0.3,1
	c0.2,0.3,0.4,0.6,0.7,0.8s0.7,0.3,1,0.3C47.6,36.3,48.1,36.2,48.5,35.8z M56.8,31.8l-2.4,5.1h-0.1l-2.5-5.1h0.7l1.9,4l1.8-4H56.8z
	 M62.3,35.8l0.3,0.4c-0.2,0.2-0.5,0.3-0.8,0.5c-0.3,0.1-0.6,0.2-0.9,0.2c-0.5,0-0.9-0.1-1.3-0.3c-0.4-0.2-0.7-0.5-0.9-0.9
	s-0.3-0.8-0.3-1.3c0-0.5,0.1-0.9,0.3-1.3c0.2-0.4,0.6-0.7,1-0.9s0.8-0.3,1.3-0.3c0.6,0,1,0.2,1.5,0.5c0.4,0.3,0.7,0.8,0.9,1.3
	L59,35.1c0.2,0.4,0.4,0.6,0.7,0.9c0.3,0.2,0.7,0.3,1.1,0.3C61.4,36.3,61.8,36.1,62.3,35.8z M59.8,32.4c-0.3,0.2-0.6,0.4-0.7,0.7
	c-0.2,0.3-0.3,0.7-0.3,1c0,0.2,0,0.3,0.1,0.5l3.6-1.4c-0.2-0.3-0.4-0.6-0.7-0.8c-0.3-0.2-0.6-0.3-1-0.3
	C60.4,32.2,60.1,32.3,59.8,32.4z M66,27.2v9.5h-0.6v-9.5H66z M77.8,33.8h-3.9l-1.2,2.9h-0.6l3.8-9.3h0l3.8,9.3h-0.7L77.8,33.8z
	 M77.6,33.2l-1.7-4.4l-1.8,4.4H77.6z M85.3,32.1c0.3,0.3,0.4,0.6,0.4,1.1v3.6h-0.6v-3.4c0-0.3-0.1-0.6-0.3-0.8s-0.5-0.3-0.8-0.3
	c-0.3,0-0.6,0.1-0.9,0.2c-0.3,0.2-0.5,0.4-0.7,0.7c-0.2,0.3-0.3,0.6-0.3,1v2.6h-0.6v-4.9H82l0,1.1c0.2-0.4,0.4-0.7,0.8-0.9
	c0.4-0.2,0.8-0.3,1.3-0.3C84.6,31.7,85,31.8,85.3,32.1z M92.6,31.8l-3.2,7.2h-0.6l1-2.4l-2.3-4.8h0.7l1.9,4.2l1.8-4.2H92.6z
	 M102,31.8L99.7,37l-1.6-3.5L96.7,37l-2.3-5.2H95l1.8,4l1.2-2.8l-0.5-1.2h0.5l1.8,4l1.7-4H102z M107.7,32.1c0.3,0.3,0.4,0.6,0.4,1.1
	v3.6h-0.6v-3.4c0-0.3-0.1-0.6-0.3-0.8s-0.5-0.3-0.8-0.3c-0.3,0-0.6,0.1-0.9,0.3c-0.3,0.2-0.5,0.4-0.7,0.7c-0.2,0.3-0.3,0.6-0.3,1
	v2.6H104v-9.5h0.6v5.6c0.2-0.3,0.5-0.6,0.8-0.8c0.4-0.2,0.8-0.3,1.2-0.3S107.4,31.8,107.7,32.1z M114.8,35.8l0.3,0.4
	c-0.2,0.2-0.5,0.3-0.8,0.5c-0.3,0.1-0.6,0.2-0.9,0.2c-0.5,0-0.9-0.1-1.3-0.3c-0.4-0.2-0.7-0.5-0.9-0.9s-0.3-0.8-0.3-1.3
	c0-0.5,0.1-0.9,0.3-1.3c0.2-0.4,0.5-0.7,1-0.9s0.8-0.3,1.3-0.3c0.6,0,1,0.2,1.5,0.5c0.4,0.3,0.7,0.8,0.9,1.3l-4.2,1.6
	c0.2,0.4,0.4,0.6,0.7,0.9s0.7,0.3,1.1,0.3C113.9,36.3,114.4,36.1,114.8,35.8z M112.3,32.4c-0.3,0.2-0.5,0.4-0.7,0.7
	c-0.2,0.3-0.3,0.7-0.3,1c0,0.2,0,0.3,0,0.5l3.6-1.4c-0.2-0.3-0.4-0.6-0.7-0.8c-0.3-0.2-0.6-0.3-1-0.3
	C113,32.2,112.6,32.3,112.3,32.4z M119,32.1c0.4-0.2,0.8-0.4,1.2-0.4l0,0.6c-0.4,0-0.7,0.1-1,0.2c-0.3,0.2-0.6,0.4-0.7,0.7
	c-0.2,0.3-0.3,0.6-0.3,0.9v2.6h-0.6v-4.9h0.5l0,1.2C118.3,32.6,118.6,32.3,119,32.1z M125.8,35.8l0.3,0.4c-0.2,0.2-0.5,0.3-0.8,0.5
	c-0.3,0.1-0.6,0.2-0.9,0.2c-0.5,0-0.9-0.1-1.3-0.3c-0.4-0.2-0.7-0.5-0.9-0.9s-0.3-0.8-0.3-1.3c0-0.5,0.1-0.9,0.3-1.3
	c0.2-0.4,0.5-0.7,1-0.9s0.8-0.3,1.3-0.3c0.6,0,1,0.2,1.5,0.5c0.4,0.3,0.7,0.8,0.9,1.3l-4.2,1.6c0.2,0.4,0.4,0.6,0.7,0.9
	s0.7,0.3,1.1,0.3C124.9,36.3,125.4,36.1,125.8,35.8z M123.3,32.4c-0.3,0.2-0.5,0.4-0.7,0.7c-0.2,0.3-0.3,0.7-0.3,1
	c0,0.2,0,0.3,0,0.5l3.6-1.4c-0.2-0.3-0.4-0.6-0.7-0.8c-0.3-0.2-0.6-0.3-1-0.3C123.9,32.2,123.6,32.3,123.3,32.4z M12.5,9.2
	c0.4,0.5,0.6,1.2,0.6,1.9c0,1.3-0.4,2.3-1.3,2.9c-0.9,0.6-2,1-3.3,1H4.4V1.5H8c1.4,0,2.5,0.3,3.3,0.9c0.8,0.6,1.2,1.4,1.2,2.5
	c0,0.7-0.2,1.3-0.5,1.8s-0.7,0.9-1.3,1.2C11.5,8.2,12.1,8.7,12.5,9.2z M6.5,7.2h1.9C9,7.2,9.5,7,9.8,6.7c0.3-0.4,0.5-0.8,0.5-1.4
	c0-0.6-0.2-1-0.6-1.3C9.3,3.7,8.8,3.6,8.1,3.6H6.5V7.2z M10.2,12.5c0.5-0.3,0.7-0.8,0.7-1.4c0-0.6-0.2-1.1-0.7-1.4S9.1,9.3,8.3,9.3
	H6.5v3.7h1.9C9.2,12.9,9.8,12.8,10.2,12.5z M28.3,14.9h-2.2V9.2h-6.6v5.7h-2.2V1.5h2.2v5.7h6.6V1.5h2.2V14.9z M41,14.9l-3-4.7h-0.2
	h-1.9v4.7h-2.2V1.5h3.8c1.5,0,2.7,0.4,3.6,1.1c0.9,0.8,1.4,1.8,1.4,3.2c0,0.8-0.2,1.6-0.5,2.3c-0.4,0.7-0.9,1.3-1.7,1.6l3.3,5.2H41z
	 M35.8,8.2h1.9c0.9,0,1.5-0.2,1.9-0.7c0.4-0.5,0.6-1,0.6-1.6c0-0.3-0.1-0.7-0.2-1c-0.1-0.4-0.4-0.7-0.8-0.9
	c-0.4-0.3-0.8-0.4-1.4-0.4h-2V8.2z M47.3,4.8c0.6-1.1,1.5-1.9,2.5-2.5s2.2-0.9,3.5-0.9c1.2,0,2.4,0.3,3.4,0.9
	c1.1,0.6,1.9,1.5,2.5,2.5c0.6,1.1,0.9,2.2,0.9,3.4c0,1.2-0.3,2.4-0.9,3.4c-0.6,1-1.5,1.9-2.5,2.5c-1.1,0.6-2.2,0.9-3.4,0.9
	c-1.2,0-2.4-0.3-3.5-0.9c-1.1-0.6-1.9-1.4-2.5-2.5s-0.9-2.2-0.9-3.5C46.4,7,46.7,5.9,47.3,4.8z M49.2,10.6c0.4,0.7,1,1.3,1.7,1.7
	c0.7,0.4,1.5,0.6,2.4,0.6c0.9,0,1.6-0.2,2.3-0.6c0.7-0.4,1.3-1,1.7-1.7C57.7,9.9,58,9.1,58,8.2c0-0.9-0.2-1.7-0.6-2.4
	c-0.4-0.7-1-1.3-1.7-1.8s-1.5-0.6-2.3-0.6c-0.9,0-1.6,0.2-2.4,0.6c-0.7,0.4-1.3,1-1.7,1.8c-0.4,0.7-0.6,1.5-0.6,2.4
	C48.6,9.1,48.8,9.9,49.2,10.6z M78.3,1v13.9h-2.1V7.2l-4.7,6.7h0l-4.6-6.4v7.5h-2.1V1h0l6.7,9.5L78.3,1L78.3,1z M89.8,11.8h-4.9
	l-1.3,3.2h-2.1l6-14h0.1l6,14H91L89.8,11.8z M89,9.9l-1.7-4.3l-1.7,4.3H89z M97,4.8c0.6-1.1,1.5-1.9,2.5-2.5s2.2-0.9,3.5-0.9
	c1.2,0,2.4,0.3,3.4,0.9s1.9,1.5,2.5,2.5c0.6,1.1,0.9,2.2,0.9,3.4c0,1.2-0.3,2.4-0.9,3.4c-0.6,1-1.5,1.9-2.5,2.5
	c-1.1,0.6-2.2,0.9-3.4,0.9c-1.2,0-2.4-0.3-3.5-0.9c-1.1-0.6-1.9-1.4-2.5-2.5c-0.6-1-0.9-2.2-0.9-3.5C96.1,7,96.4,5.9,97,4.8z
	 M99,10.6c0.4,0.7,1,1.3,1.7,1.7c0.7,0.4,1.5,0.6,2.4,0.6c0.9,0,1.6-0.2,2.3-0.6c0.7-0.4,1.3-1,1.7-1.7c0.4-0.7,0.6-1.5,0.6-2.4
	c0-0.9-0.2-1.7-0.6-2.4c-0.4-0.7-1-1.3-1.7-1.8c-0.7-0.4-1.5-0.6-2.3-0.6c-0.9,0-1.6,0.2-2.4,0.6c-0.7,0.4-1.3,1-1.7,1.8
	c-0.4,0.7-0.6,1.5-0.6,2.4C98.3,9.1,98.5,9.9,99,10.6z M126.3,1.5v13.9h-0.1L116.6,6l0.1,8.9h-2.2V1h0.1l9.7,9.5l0-9.1H126.3z"/>
</svg>
